# Blender v2.80 (sub 75) OBJ File: 'scoreDynamicblend.blend'
# www.blender.org
mtllib scoreDynamicblend.mtl
o Plane.002
v 0.787510 2.210978 3.888996
v 2.787510 2.210978 3.888996
v 2.787510 4.024902 4.731416
v 0.787510 4.024902 4.731416
v -2.721545 4.880547 5.169894
v -0.721546 4.880547 5.169894
v -0.721546 6.694473 6.012314
v -2.721545 6.694473 6.012314
v 0.813964 4.881402 5.175218
v 2.813965 4.881402 5.175218
v 2.813965 6.695329 6.017637
v 0.813964 6.695329 6.017637
v -2.728500 2.231460 3.951616
v -0.728500 2.231460 3.951616
v -0.728500 4.045385 4.794035
v -2.728500 4.045385 4.794035
vt 0.500194 -0.003005
vt 0.999794 -0.003005
vt 0.999794 0.496595
vt 0.500194 0.496595
vt 0.001176 0.499339
vt 0.500777 0.499340
vt 0.500777 0.998940
vt 0.001176 0.998940
vt 0.499477 0.499047
vt 0.999077 0.499047
vt 0.999077 0.998647
vt 0.499477 0.998647
vt 0.001430 -0.002901
vt 0.501030 -0.002901
vt 0.501031 0.496700
vt 0.001430 0.496700
vn 0.0000 -0.4212 0.9070
usemtl None
s 1
f 1/1/1 2/2/1 3/3/1 4/4/1
f 5/5/1 6/6/1 7/7/1 8/8/1
f 9/9/1 10/10/1 11/11/1 12/12/1
f 13/13/1 14/14/1 15/15/1 16/16/1
o Plane.000
v 4.098997 2.245181 -0.711639
v 4.098997 2.245182 -2.711638
v 4.941413 4.059107 -2.711638
v 4.941413 4.059107 -0.711638
v 5.379892 4.914750 2.797418
v 5.379892 4.914751 0.797418
v 6.222311 6.728678 0.797419
v 6.222311 6.728676 2.797419
v 5.385216 4.915607 -0.738092
v 5.385216 4.915607 -2.738093
v 6.227633 6.729535 -2.738092
v 6.227633 6.729534 -0.738091
v 4.161614 2.265661 2.804372
v 4.161614 2.265663 0.804371
v 5.004034 4.079590 0.804372
v 5.004034 4.079588 2.804372
vt 0.497094 0.001645
vt 0.996694 0.001645
vt 0.996694 0.501245
vt 0.497094 0.501245
vt 0.004106 0.495433
vt 0.503706 0.495433
vt 0.503706 0.995034
vt 0.004106 0.995034
vt 0.497524 0.501000
vt 0.997124 0.501000
vt 0.997124 1.000600
vt 0.497524 1.000600
vt 0.004531 0.000200
vt 0.504131 0.000200
vt 0.504131 0.499800
vt 0.004531 0.499800
vn 0.9070 -0.4212 -0.0000
usemtl None
s 1
f 17/17/2 18/18/2 19/19/2 20/20/2
f 21/21/2 22/22/2 23/23/2 24/24/2
f 25/25/2 26/26/2 27/27/2 28/28/2
f 29/29/2 30/30/2 31/31/2 32/32/2
o Plane.001
v -0.783365 2.238873 -4.374420
v -2.783365 2.238873 -4.374421
v -2.783365 4.052799 -5.216839
v -0.783365 4.052799 -5.216839
v 2.725690 4.908443 -5.655316
v 0.725691 4.908443 -5.655316
v 0.725691 6.722371 -6.497735
v 2.725691 6.722371 -6.497735
v -0.809820 4.909299 -5.660638
v -2.809820 4.909299 -5.660639
v -2.809820 6.723227 -6.503058
v -0.809819 6.723227 -6.503057
v 2.732645 2.259355 -4.437040
v 0.732645 2.259355 -4.437040
v 0.732645 4.073282 -5.279459
v 2.732645 4.073282 -5.279458
vt 0.497094 0.001645
vt 0.996694 0.001645
vt 0.996694 0.501245
vt 0.497094 0.501245
vt 0.004106 0.495433
vt 0.503706 0.495433
vt 0.503706 0.995034
vt 0.004106 0.995034
vt 0.497524 0.501000
vt 0.997124 0.501000
vt 0.997124 1.000600
vt 0.497524 1.000600
vt 0.004531 0.000200
vt 0.504131 0.000200
vt 0.504131 0.499800
vt 0.004531 0.499800
vn 0.0000 -0.4212 -0.9070
usemtl None
s 1
f 33/33/3 34/34/3 35/35/3 36/36/3
f 37/37/3 38/38/3 39/39/3 40/40/3
f 41/41/3 42/42/3 43/43/3 44/44/3
f 45/45/3 46/46/3 47/47/3 48/48/3
o Plane.003
v -4.313619 2.284899 0.868937
v -4.313619 2.284899 2.868937
v -5.156035 4.098825 2.868938
v -5.156035 4.098825 0.868938
v -5.594516 4.954471 -2.640118
v -5.594516 4.954469 -0.640118
v -6.436933 6.768396 -0.640118
v -6.436933 6.768396 -2.640118
v -5.599839 4.955325 0.895393
v -5.599839 4.955325 2.895393
v -6.442255 6.769250 2.895393
v -6.442255 6.769252 0.895393
v -4.376237 2.305382 -2.647073
v -4.376237 2.305381 -0.647073
v -5.218656 4.119308 -0.647072
v -5.218656 4.119308 -2.647072
vt 0.497094 0.001645
vt 0.996694 0.001645
vt 0.996694 0.501245
vt 0.497094 0.501245
vt 0.004106 0.495433
vt 0.503706 0.495433
vt 0.503706 0.995034
vt 0.004106 0.995034
vt 0.497524 0.501000
vt 0.997124 0.501000
vt 0.997124 1.000600
vt 0.497524 1.000600
vt 0.004531 0.000200
vt 0.504131 0.000200
vt 0.504131 0.499800
vt 0.004531 0.499800
vn -0.9070 -0.4212 -0.0000
usemtl None
s 1
f 49/49/4 50/50/4 51/51/4 52/52/4
f 53/53/4 54/54/4 55/55/4 56/56/4
f 57/57/4 58/58/4 59/59/4 60/60/4
f 61/61/4 62/62/4 63/63/4 64/64/4
